M48
; DRILL file {KiCad (6.0.7-1)-1} date 2023 August 08, Tuesday 09:05:16
; FORMAT={-:-/ absolute / metric / decimal}
; #@! TF.CreationDate,2023-08-08T09:05:16+02:00
; #@! TF.GenerationSoftware,Kicad,Pcbnew,(6.0.7-1)-1
; #@! TF.FileFunction,Plated,1,2,PTH
FMAT,2
METRIC
; #@! TA.AperFunction,Plated,PTH,ViaDrill
T1C0.400
; #@! TA.AperFunction,Plated,PTH,ComponentDrill
T2C2.410
; #@! TA.AperFunction,Plated,PTH,ComponentDrill
T3C3.200
%
G90
G05
T1
X122.949Y-84.115
X123.449Y-88.115
X125.949Y-89.615
X126.046Y-82.615
X128.046Y-88.615
X128.449Y-84.115
X130.949Y-84.615
X130.949Y-113.115
X130.949Y-144.615
X130.949Y-173.615
X136.449Y-90.115
X136.949Y-120.115
X136.949Y-150.115
X136.949Y-180.115
X146.949Y-108.615
X146.949Y-168.615
X146.974Y-171.165
X147.016Y-111.157
X149.449Y-155.115
X149.949Y-110.615
X149.949Y-170.615
X150.449Y-117.115
X150.449Y-143.615
X150.449Y-155.115
X150.449Y-176.615
X150.549Y-137.715
X151.449Y-138.615
X151.449Y-143.615
X151.449Y-155.115
X152.449Y-143.615
X152.449Y-155.115
X152.449Y-175.115
X152.699Y-136.865
X153.849Y-137.715
X153.949Y-123.615
X153.949Y-175.115
X155.449Y-123.615
X155.449Y-138.615
X155.449Y-175.115
X156.949Y-123.615
X156.949Y-136.615
X156.949Y-175.115
X156.949Y-176.615
X158.449Y-115.115
X160.949Y-84.615
X160.949Y-145.115
X166.449Y-90.115
X166.449Y-120.115
X166.449Y-150.115
X166.449Y-180.115
X190.949Y-84.115
X190.949Y-113.115
X190.949Y-144.115
X190.949Y-173.115
X195.949Y-150.115
X196.449Y-90.115
X196.949Y-119.615
X196.949Y-180.115
X206.949Y-108.615
X206.949Y-168.615
X206.993Y-111.115
X207.016Y-171.107
X209.449Y-155.115
X209.949Y-110.615
X209.949Y-170.615
X210.449Y-116.615
X210.449Y-143.615
X210.449Y-155.115
X210.449Y-176.615
X210.549Y-137.715
X211.449Y-138.615
X211.449Y-143.615
X211.449Y-155.115
X212.449Y-143.615
X212.449Y-155.115
X212.449Y-175.115
X212.699Y-136.865
X213.949Y-123.615
X213.949Y-175.115
X214.049Y-137.715
X215.449Y-123.615
X215.449Y-138.615
X215.449Y-175.115
X216.949Y-123.615
X216.949Y-175.115
X217.199Y-136.865
X217.449Y-177.115
X218.449Y-115.115
X221.449Y-84.615
X221.949Y-145.115
X226.449Y-150.115
X226.449Y-180.115
X226.949Y-89.615
X226.949Y-119.615
X250.949Y-113.115
X250.949Y-144.615
X250.949Y-173.115
X251.449Y-84.115
X256.449Y-89.615
X256.949Y-120.115
X256.949Y-150.115
X256.949Y-180.115
X266.949Y-108.615
X266.949Y-168.615
X267.017Y-111.115
X267.017Y-171.115
X269.449Y-155.115
X269.949Y-110.615
X269.949Y-116.615
X269.949Y-170.615
X269.949Y-177.115
X270.449Y-143.615
X270.449Y-155.115
X270.549Y-137.715
X271.449Y-138.615
X271.449Y-143.615
X271.449Y-155.115
X272.449Y-143.615
X272.449Y-155.115
X272.449Y-175.115
X272.699Y-136.865
X273.949Y-123.615
X273.949Y-175.115
X274.049Y-137.715
X275.449Y-123.615
X275.449Y-138.615
X275.449Y-175.115
X276.949Y-123.615
X276.949Y-175.115
X277.199Y-136.865
X277.949Y-177.115
X278.449Y-114.615
X279.449Y-146.115
X281.449Y-84.615
X282.949Y-142.615
X282.949Y-144.615
X286.449Y-90.115
X286.449Y-150.115
X286.449Y-179.615
X286.949Y-120.115
T2
X120.381Y-78.965
X120.381Y-89.265
T3
X119.949Y-71.615
X119.949Y-101.615
X119.949Y-131.615
X119.949Y-161.615
X119.949Y-191.615
X149.949Y-71.615
X149.949Y-101.615
X149.949Y-131.615
X149.949Y-161.615
X149.949Y-191.615
X179.949Y-71.615
X179.949Y-101.615
X179.949Y-131.615
X179.949Y-161.615
X179.949Y-191.615
X209.949Y-71.615
X209.949Y-101.615
X209.949Y-131.615
X209.949Y-161.615
X209.949Y-191.615
X239.949Y-71.615
X239.949Y-101.615
X239.949Y-131.544
X239.949Y-161.615
X239.949Y-191.615
X269.949Y-71.615
X269.949Y-101.615
X269.949Y-131.615
X269.949Y-161.615
X269.949Y-191.615
X299.949Y-71.615
X299.949Y-102.615
X299.949Y-161.615
X299.949Y-191.615
T0
M30
