%TF.GenerationSoftware,KiCad,Pcbnew,(6.0.7-1)-1*%
%TF.CreationDate,2023-08-08T09:05:19+02:00*%
%TF.ProjectId,BD-SMD_PD,42442d53-4d44-45f5-9044-2e6b69636164,rev?*%
%TF.SameCoordinates,Original*%
%TF.FileFunction,Drillmap*%
%TF.FilePolarity,Positive*%
%FSLAX45Y45*%
G04 Gerber Fmt 4.5, Leading zero omitted, Abs format (unit mm)*
G04 Created by KiCad (PCBNEW (6.0.7-1)-1) date 2023-08-08 09:05:19*
%MOMM*%
%LPD*%
G01*
G04 APERTURE LIST*
%ADD10C,0.100000*%
%ADD11C,0.200000*%
%ADD12C,0.040000*%
%ADD13C,0.241000*%
%ADD14C,0.320000*%
G04 APERTURE END LIST*
D10*
X13994900Y-16161500D02*
G75*
G03*
X13994900Y-16161500I-500000J0D01*
G01*
X29994900Y-19661500D02*
G75*
G03*
X30494900Y-19161500I0J500000D01*
G01*
X16994900Y-7261500D02*
G75*
G03*
X16994900Y-7261500I-500000J0D01*
G01*
X19994900Y-10161500D02*
G75*
G03*
X19994900Y-10161500I-500000J0D01*
G01*
X28994900Y-13161500D02*
G75*
G03*
X28994900Y-13161500I-500000J0D01*
G01*
X13994900Y-7261500D02*
G75*
G03*
X13994900Y-7261500I-500000J0D01*
G01*
X13994900Y-19061500D02*
G75*
G03*
X13994900Y-19061500I-500000J0D01*
G01*
X25994900Y-16161500D02*
G75*
G03*
X25994900Y-16161500I-500000J0D01*
G01*
X22994900Y-19061500D02*
G75*
G03*
X22994900Y-19061500I-500000J0D01*
G01*
X22994900Y-13161500D02*
G75*
G03*
X22994900Y-13161500I-500000J0D01*
G01*
X25994900Y-13161500D02*
G75*
G03*
X25994900Y-13161500I-500000J0D01*
G01*
X25994900Y-19061500D02*
G75*
G03*
X25994900Y-19061500I-500000J0D01*
G01*
X22994900Y-16161500D02*
G75*
G03*
X22994900Y-16161500I-500000J0D01*
G01*
X16994900Y-10161500D02*
G75*
G03*
X16994900Y-10161500I-500000J0D01*
G01*
X22994900Y-10161500D02*
G75*
G03*
X22994900Y-10161500I-500000J0D01*
G01*
X13994900Y-10161500D02*
G75*
G03*
X13994900Y-10161500I-500000J0D01*
G01*
X30494900Y-7161500D02*
G75*
G03*
X29994900Y-6661500I-500000J0D01*
G01*
X28994900Y-19061500D02*
G75*
G03*
X28994900Y-19061500I-500000J0D01*
G01*
X19994900Y-19061500D02*
G75*
G03*
X19994900Y-19061500I-500000J0D01*
G01*
X13994900Y-13161500D02*
G75*
G03*
X13994900Y-13161500I-500000J0D01*
G01*
X19994900Y-7261500D02*
G75*
G03*
X19994900Y-7261500I-500000J0D01*
G01*
X30494900Y-19161500D02*
X30494900Y-7161500D01*
X28994900Y-16161500D02*
G75*
G03*
X28994900Y-16161500I-500000J0D01*
G01*
X11494900Y-7161500D02*
X11494900Y-19161500D01*
X22994900Y-7261500D02*
G75*
G03*
X22994900Y-7261500I-500000J0D01*
G01*
X25994900Y-7261500D02*
G75*
G03*
X25994900Y-7261500I-500000J0D01*
G01*
X28994900Y-7261500D02*
G75*
G03*
X28994900Y-7261500I-500000J0D01*
G01*
X29994900Y-6661500D02*
X11994900Y-6661500D01*
X16994900Y-16161500D02*
G75*
G03*
X16994900Y-16161500I-500000J0D01*
G01*
X11994900Y-6661500D02*
G75*
G03*
X11494900Y-7161500I0J-500000D01*
G01*
X28994900Y-10161500D02*
G75*
G03*
X28994900Y-10161500I-500000J0D01*
G01*
X25994900Y-10161500D02*
G75*
G03*
X25994900Y-10161500I-500000J0D01*
G01*
X16994900Y-13161500D02*
G75*
G03*
X16994900Y-13161500I-500000J0D01*
G01*
D11*
X11494900Y-19161500D02*
G75*
G03*
X11994900Y-19661500I500000J0D01*
G01*
D10*
X19994900Y-13161500D02*
G75*
G03*
X19994900Y-13161500I-500000J0D01*
G01*
X19994900Y-16161500D02*
G75*
G03*
X19994900Y-16161500I-500000J0D01*
G01*
X11994900Y-19661500D02*
X29994900Y-19661500D01*
X16994900Y-19061500D02*
G75*
G03*
X16994900Y-19061500I-500000J0D01*
G01*
D11*
D12*
X12274900Y-8391500D02*
X12314900Y-8431500D01*
X12314900Y-8391500D02*
X12274900Y-8431500D01*
X12324900Y-8791500D02*
X12364900Y-8831500D01*
X12364900Y-8791500D02*
X12324900Y-8831500D01*
X12574900Y-8941500D02*
X12614900Y-8981500D01*
X12614900Y-8941500D02*
X12574900Y-8981500D01*
X12584650Y-8241500D02*
X12624650Y-8281500D01*
X12624650Y-8241500D02*
X12584650Y-8281500D01*
X12784650Y-8841500D02*
X12824650Y-8881500D01*
X12824650Y-8841500D02*
X12784650Y-8881500D01*
X12824900Y-8391500D02*
X12864900Y-8431500D01*
X12864900Y-8391500D02*
X12824900Y-8431500D01*
X13074900Y-8441500D02*
X13114900Y-8481500D01*
X13114900Y-8441500D02*
X13074900Y-8481500D01*
X13074900Y-11291500D02*
X13114900Y-11331500D01*
X13114900Y-11291500D02*
X13074900Y-11331500D01*
X13074900Y-14441500D02*
X13114900Y-14481500D01*
X13114900Y-14441500D02*
X13074900Y-14481500D01*
X13074900Y-17341500D02*
X13114900Y-17381500D01*
X13114900Y-17341500D02*
X13074900Y-17381500D01*
X13624900Y-8991500D02*
X13664900Y-9031500D01*
X13664900Y-8991500D02*
X13624900Y-9031500D01*
X13674900Y-11991500D02*
X13714900Y-12031500D01*
X13714900Y-11991500D02*
X13674900Y-12031500D01*
X13674900Y-14991500D02*
X13714900Y-15031500D01*
X13714900Y-14991500D02*
X13674900Y-15031500D01*
X13674900Y-17991500D02*
X13714900Y-18031500D01*
X13714900Y-17991500D02*
X13674900Y-18031500D01*
X14674900Y-10841500D02*
X14714900Y-10881500D01*
X14714900Y-10841500D02*
X14674900Y-10881500D01*
X14674900Y-16841500D02*
X14714900Y-16881500D01*
X14714900Y-16841500D02*
X14674900Y-16881500D01*
X14677400Y-17096500D02*
X14717400Y-17136500D01*
X14717400Y-17096500D02*
X14677400Y-17136500D01*
X14681650Y-11095750D02*
X14721650Y-11135750D01*
X14721650Y-11095750D02*
X14681650Y-11135750D01*
X14924900Y-15491500D02*
X14964900Y-15531500D01*
X14964900Y-15491500D02*
X14924900Y-15531500D01*
X14974900Y-11041500D02*
X15014900Y-11081500D01*
X15014900Y-11041500D02*
X14974900Y-11081500D01*
X14974900Y-17041500D02*
X15014900Y-17081500D01*
X15014900Y-17041500D02*
X14974900Y-17081500D01*
X15024900Y-11691500D02*
X15064900Y-11731500D01*
X15064900Y-11691500D02*
X15024900Y-11731500D01*
X15024900Y-14341500D02*
X15064900Y-14381500D01*
X15064900Y-14341500D02*
X15024900Y-14381500D01*
X15024900Y-15491500D02*
X15064900Y-15531500D01*
X15064900Y-15491500D02*
X15024900Y-15531500D01*
X15024900Y-17641500D02*
X15064900Y-17681500D01*
X15064900Y-17641500D02*
X15024900Y-17681500D01*
X15034900Y-13751500D02*
X15074900Y-13791500D01*
X15074900Y-13751500D02*
X15034900Y-13791500D01*
X15124900Y-13841500D02*
X15164900Y-13881500D01*
X15164900Y-13841500D02*
X15124900Y-13881500D01*
X15124900Y-14341500D02*
X15164900Y-14381500D01*
X15164900Y-14341500D02*
X15124900Y-14381500D01*
X15124900Y-15491500D02*
X15164900Y-15531500D01*
X15164900Y-15491500D02*
X15124900Y-15531500D01*
X15224900Y-14341500D02*
X15264900Y-14381500D01*
X15264900Y-14341500D02*
X15224900Y-14381500D01*
X15224900Y-15491500D02*
X15264900Y-15531500D01*
X15264900Y-15491500D02*
X15224900Y-15531500D01*
X15224900Y-17491500D02*
X15264900Y-17531500D01*
X15264900Y-17491500D02*
X15224900Y-17531500D01*
X15249900Y-13666500D02*
X15289900Y-13706500D01*
X15289900Y-13666500D02*
X15249900Y-13706500D01*
X15364900Y-13751500D02*
X15404900Y-13791500D01*
X15404900Y-13751500D02*
X15364900Y-13791500D01*
X15374900Y-12341500D02*
X15414900Y-12381500D01*
X15414900Y-12341500D02*
X15374900Y-12381500D01*
X15374900Y-17491500D02*
X15414900Y-17531500D01*
X15414900Y-17491500D02*
X15374900Y-17531500D01*
X15524900Y-12341500D02*
X15564900Y-12381500D01*
X15564900Y-12341500D02*
X15524900Y-12381500D01*
X15524900Y-13841500D02*
X15564900Y-13881500D01*
X15564900Y-13841500D02*
X15524900Y-13881500D01*
X15524900Y-17491500D02*
X15564900Y-17531500D01*
X15564900Y-17491500D02*
X15524900Y-17531500D01*
X15674900Y-12341500D02*
X15714900Y-12381500D01*
X15714900Y-12341500D02*
X15674900Y-12381500D01*
X15674900Y-13641500D02*
X15714900Y-13681500D01*
X15714900Y-13641500D02*
X15674900Y-13681500D01*
X15674900Y-17491500D02*
X15714900Y-17531500D01*
X15714900Y-17491500D02*
X15674900Y-17531500D01*
X15674900Y-17641500D02*
X15714900Y-17681500D01*
X15714900Y-17641500D02*
X15674900Y-17681500D01*
X15824900Y-11491500D02*
X15864900Y-11531500D01*
X15864900Y-11491500D02*
X15824900Y-11531500D01*
X16074900Y-8441500D02*
X16114900Y-8481500D01*
X16114900Y-8441500D02*
X16074900Y-8481500D01*
X16074900Y-14491500D02*
X16114900Y-14531500D01*
X16114900Y-14491500D02*
X16074900Y-14531500D01*
X16624900Y-8991500D02*
X16664900Y-9031500D01*
X16664900Y-8991500D02*
X16624900Y-9031500D01*
X16624900Y-11991500D02*
X16664900Y-12031500D01*
X16664900Y-11991500D02*
X16624900Y-12031500D01*
X16624900Y-14991500D02*
X16664900Y-15031500D01*
X16664900Y-14991500D02*
X16624900Y-15031500D01*
X16624900Y-17991500D02*
X16664900Y-18031500D01*
X16664900Y-17991500D02*
X16624900Y-18031500D01*
X19074900Y-8391500D02*
X19114900Y-8431500D01*
X19114900Y-8391500D02*
X19074900Y-8431500D01*
X19074900Y-11291500D02*
X19114900Y-11331500D01*
X19114900Y-11291500D02*
X19074900Y-11331500D01*
X19074900Y-14391500D02*
X19114900Y-14431500D01*
X19114900Y-14391500D02*
X19074900Y-14431500D01*
X19074900Y-17291500D02*
X19114900Y-17331500D01*
X19114900Y-17291500D02*
X19074900Y-17331500D01*
X19574900Y-14991500D02*
X19614900Y-15031500D01*
X19614900Y-14991500D02*
X19574900Y-15031500D01*
X19624900Y-8991500D02*
X19664900Y-9031500D01*
X19664900Y-8991500D02*
X19624900Y-9031500D01*
X19674900Y-11941500D02*
X19714900Y-11981500D01*
X19714900Y-11941500D02*
X19674900Y-11981500D01*
X19674900Y-17991500D02*
X19714900Y-18031500D01*
X19714900Y-17991500D02*
X19674900Y-18031500D01*
X20674900Y-10841500D02*
X20714900Y-10881500D01*
X20714900Y-10841500D02*
X20674900Y-10881500D01*
X20674900Y-16841500D02*
X20714900Y-16881500D01*
X20714900Y-16841500D02*
X20674900Y-16881500D01*
X20679349Y-11091500D02*
X20719349Y-11131500D01*
X20719349Y-11091500D02*
X20679349Y-11131500D01*
X20681650Y-17090750D02*
X20721650Y-17130750D01*
X20721650Y-17090750D02*
X20681650Y-17130750D01*
X20924900Y-15491500D02*
X20964900Y-15531500D01*
X20964900Y-15491500D02*
X20924900Y-15531500D01*
X20974900Y-11041500D02*
X21014900Y-11081500D01*
X21014900Y-11041500D02*
X20974900Y-11081500D01*
X20974900Y-17041500D02*
X21014900Y-17081500D01*
X21014900Y-17041500D02*
X20974900Y-17081500D01*
X21024900Y-11641500D02*
X21064900Y-11681500D01*
X21064900Y-11641500D02*
X21024900Y-11681500D01*
X21024900Y-14341500D02*
X21064900Y-14381500D01*
X21064900Y-14341500D02*
X21024900Y-14381500D01*
X21024900Y-15491500D02*
X21064900Y-15531500D01*
X21064900Y-15491500D02*
X21024900Y-15531500D01*
X21024900Y-17641500D02*
X21064900Y-17681500D01*
X21064900Y-17641500D02*
X21024900Y-17681500D01*
X21034900Y-13751500D02*
X21074900Y-13791500D01*
X21074900Y-13751500D02*
X21034900Y-13791500D01*
X21124900Y-13841500D02*
X21164900Y-13881500D01*
X21164900Y-13841500D02*
X21124900Y-13881500D01*
X21124900Y-14341500D02*
X21164900Y-14381500D01*
X21164900Y-14341500D02*
X21124900Y-14381500D01*
X21124900Y-15491500D02*
X21164900Y-15531500D01*
X21164900Y-15491500D02*
X21124900Y-15531500D01*
X21224900Y-14341500D02*
X21264900Y-14381500D01*
X21264900Y-14341500D02*
X21224900Y-14381500D01*
X21224900Y-15491500D02*
X21264900Y-15531500D01*
X21264900Y-15491500D02*
X21224900Y-15531500D01*
X21224900Y-17491500D02*
X21264900Y-17531500D01*
X21264900Y-17491500D02*
X21224900Y-17531500D01*
X21249900Y-13666500D02*
X21289900Y-13706500D01*
X21289900Y-13666500D02*
X21249900Y-13706500D01*
X21374900Y-12341500D02*
X21414900Y-12381500D01*
X21414900Y-12341500D02*
X21374900Y-12381500D01*
X21374900Y-17491500D02*
X21414900Y-17531500D01*
X21414900Y-17491500D02*
X21374900Y-17531500D01*
X21384900Y-13751500D02*
X21424900Y-13791500D01*
X21424900Y-13751500D02*
X21384900Y-13791500D01*
X21524900Y-12341500D02*
X21564900Y-12381500D01*
X21564900Y-12341500D02*
X21524900Y-12381500D01*
X21524900Y-13841500D02*
X21564900Y-13881500D01*
X21564900Y-13841500D02*
X21524900Y-13881500D01*
X21524900Y-17491500D02*
X21564900Y-17531500D01*
X21564900Y-17491500D02*
X21524900Y-17531500D01*
X21674900Y-12341500D02*
X21714900Y-12381500D01*
X21714900Y-12341500D02*
X21674900Y-12381500D01*
X21674900Y-17491500D02*
X21714900Y-17531500D01*
X21714900Y-17491500D02*
X21674900Y-17531500D01*
X21699900Y-13666500D02*
X21739900Y-13706500D01*
X21739900Y-13666500D02*
X21699900Y-13706500D01*
X21724900Y-17691500D02*
X21764900Y-17731500D01*
X21764900Y-17691500D02*
X21724900Y-17731500D01*
X21824900Y-11491500D02*
X21864900Y-11531500D01*
X21864900Y-11491500D02*
X21824900Y-11531500D01*
X22124900Y-8441500D02*
X22164900Y-8481500D01*
X22164900Y-8441500D02*
X22124900Y-8481500D01*
X22174900Y-14491500D02*
X22214900Y-14531500D01*
X22214900Y-14491500D02*
X22174900Y-14531500D01*
X22624900Y-14991500D02*
X22664900Y-15031500D01*
X22664900Y-14991500D02*
X22624900Y-15031500D01*
X22624900Y-17991500D02*
X22664900Y-18031500D01*
X22664900Y-17991500D02*
X22624900Y-18031500D01*
X22674900Y-8941500D02*
X22714900Y-8981500D01*
X22714900Y-8941500D02*
X22674900Y-8981500D01*
X22674900Y-11941500D02*
X22714900Y-11981500D01*
X22714900Y-11941500D02*
X22674900Y-11981500D01*
X25074900Y-11291500D02*
X25114900Y-11331500D01*
X25114900Y-11291500D02*
X25074900Y-11331500D01*
X25074900Y-14441500D02*
X25114900Y-14481500D01*
X25114900Y-14441500D02*
X25074900Y-14481500D01*
X25074900Y-17291500D02*
X25114900Y-17331500D01*
X25114900Y-17291500D02*
X25074900Y-17331500D01*
X25124900Y-8391500D02*
X25164900Y-8431500D01*
X25164900Y-8391500D02*
X25124900Y-8431500D01*
X25624900Y-8941500D02*
X25664900Y-8981500D01*
X25664900Y-8941500D02*
X25624900Y-8981500D01*
X25674900Y-11991500D02*
X25714900Y-12031500D01*
X25714900Y-11991500D02*
X25674900Y-12031500D01*
X25674900Y-14991500D02*
X25714900Y-15031500D01*
X25714900Y-14991500D02*
X25674900Y-15031500D01*
X25674900Y-17991500D02*
X25714900Y-18031500D01*
X25714900Y-17991500D02*
X25674900Y-18031500D01*
X26674900Y-10841500D02*
X26714900Y-10881500D01*
X26714900Y-10841500D02*
X26674900Y-10881500D01*
X26674900Y-16841500D02*
X26714900Y-16881500D01*
X26714900Y-16841500D02*
X26674900Y-16881500D01*
X26681650Y-11091500D02*
X26721650Y-11131500D01*
X26721650Y-11091500D02*
X26681650Y-11131500D01*
X26681650Y-17091500D02*
X26721650Y-17131500D01*
X26721650Y-17091500D02*
X26681650Y-17131500D01*
X26924900Y-15491500D02*
X26964900Y-15531500D01*
X26964900Y-15491500D02*
X26924900Y-15531500D01*
X26974900Y-11041500D02*
X27014900Y-11081500D01*
X27014900Y-11041500D02*
X26974900Y-11081500D01*
X26974900Y-11641500D02*
X27014900Y-11681500D01*
X27014900Y-11641500D02*
X26974900Y-11681500D01*
X26974900Y-17041500D02*
X27014900Y-17081500D01*
X27014900Y-17041500D02*
X26974900Y-17081500D01*
X26974900Y-17691500D02*
X27014900Y-17731500D01*
X27014900Y-17691500D02*
X26974900Y-17731500D01*
X27024900Y-14341500D02*
X27064900Y-14381500D01*
X27064900Y-14341500D02*
X27024900Y-14381500D01*
X27024900Y-15491500D02*
X27064900Y-15531500D01*
X27064900Y-15491500D02*
X27024900Y-15531500D01*
X27034900Y-13751500D02*
X27074900Y-13791500D01*
X27074900Y-13751500D02*
X27034900Y-13791500D01*
X27124900Y-13841500D02*
X27164900Y-13881500D01*
X27164900Y-13841500D02*
X27124900Y-13881500D01*
X27124900Y-14341500D02*
X27164900Y-14381500D01*
X27164900Y-14341500D02*
X27124900Y-14381500D01*
X27124900Y-15491500D02*
X27164900Y-15531500D01*
X27164900Y-15491500D02*
X27124900Y-15531500D01*
X27224900Y-14341500D02*
X27264900Y-14381500D01*
X27264900Y-14341500D02*
X27224900Y-14381500D01*
X27224900Y-15491500D02*
X27264900Y-15531500D01*
X27264900Y-15491500D02*
X27224900Y-15531500D01*
X27224900Y-17491500D02*
X27264900Y-17531500D01*
X27264900Y-17491500D02*
X27224900Y-17531500D01*
X27249900Y-13666500D02*
X27289900Y-13706500D01*
X27289900Y-13666500D02*
X27249900Y-13706500D01*
X27374900Y-12341500D02*
X27414900Y-12381500D01*
X27414900Y-12341500D02*
X27374900Y-12381500D01*
X27374900Y-17491500D02*
X27414900Y-17531500D01*
X27414900Y-17491500D02*
X27374900Y-17531500D01*
X27384900Y-13751500D02*
X27424900Y-13791500D01*
X27424900Y-13751500D02*
X27384900Y-13791500D01*
X27524900Y-12341500D02*
X27564900Y-12381500D01*
X27564900Y-12341500D02*
X27524900Y-12381500D01*
X27524900Y-13841500D02*
X27564900Y-13881500D01*
X27564900Y-13841500D02*
X27524900Y-13881500D01*
X27524900Y-17491500D02*
X27564900Y-17531500D01*
X27564900Y-17491500D02*
X27524900Y-17531500D01*
X27674900Y-12341500D02*
X27714900Y-12381500D01*
X27714900Y-12341500D02*
X27674900Y-12381500D01*
X27674900Y-17491500D02*
X27714900Y-17531500D01*
X27714900Y-17491500D02*
X27674900Y-17531500D01*
X27699900Y-13666500D02*
X27739900Y-13706500D01*
X27739900Y-13666500D02*
X27699900Y-13706500D01*
X27774900Y-17691500D02*
X27814900Y-17731500D01*
X27814900Y-17691500D02*
X27774900Y-17731500D01*
X27824900Y-11441500D02*
X27864900Y-11481500D01*
X27864900Y-11441500D02*
X27824900Y-11481500D01*
X27924900Y-14591500D02*
X27964900Y-14631500D01*
X27964900Y-14591500D02*
X27924900Y-14631500D01*
X28124900Y-8441500D02*
X28164900Y-8481500D01*
X28164900Y-8441500D02*
X28124900Y-8481500D01*
X28274900Y-14241500D02*
X28314900Y-14281500D01*
X28314900Y-14241500D02*
X28274900Y-14281500D01*
X28274900Y-14441500D02*
X28314900Y-14481500D01*
X28314900Y-14441500D02*
X28274900Y-14481500D01*
X28624900Y-8991500D02*
X28664900Y-9031500D01*
X28664900Y-8991500D02*
X28624900Y-9031500D01*
X28624900Y-14991500D02*
X28664900Y-15031500D01*
X28664900Y-14991500D02*
X28624900Y-15031500D01*
X28624900Y-17941500D02*
X28664900Y-17981500D01*
X28664900Y-17941500D02*
X28624900Y-17981500D01*
X28674900Y-11991500D02*
X28714900Y-12031500D01*
X28714900Y-11991500D02*
X28674900Y-12031500D01*
D13*
X12158650Y-7896500D02*
G75*
G03*
X12158650Y-7896500I-120500J0D01*
G01*
X12158650Y-8926500D02*
G75*
G03*
X12158650Y-8926500I-120500J0D01*
G01*
D14*
X11994900Y-7001500D02*
X11994900Y-7321500D01*
X11834900Y-7161500D02*
X12154900Y-7161500D01*
X11994900Y-10001500D02*
X11994900Y-10321500D01*
X11834900Y-10161500D02*
X12154900Y-10161500D01*
X11994900Y-13001500D02*
X11994900Y-13321500D01*
X11834900Y-13161500D02*
X12154900Y-13161500D01*
X11994900Y-16001500D02*
X11994900Y-16321500D01*
X11834900Y-16161500D02*
X12154900Y-16161500D01*
X11994900Y-19001500D02*
X11994900Y-19321500D01*
X11834900Y-19161500D02*
X12154900Y-19161500D01*
X14994900Y-7001500D02*
X14994900Y-7321500D01*
X14834900Y-7161500D02*
X15154900Y-7161500D01*
X14994900Y-10001500D02*
X14994900Y-10321500D01*
X14834900Y-10161500D02*
X15154900Y-10161500D01*
X14994900Y-13001500D02*
X14994900Y-13321500D01*
X14834900Y-13161500D02*
X15154900Y-13161500D01*
X14994900Y-16001500D02*
X14994900Y-16321500D01*
X14834900Y-16161500D02*
X15154900Y-16161500D01*
X14994900Y-19001500D02*
X14994900Y-19321500D01*
X14834900Y-19161500D02*
X15154900Y-19161500D01*
X17994900Y-7001500D02*
X17994900Y-7321500D01*
X17834900Y-7161500D02*
X18154900Y-7161500D01*
X17994900Y-10001500D02*
X17994900Y-10321500D01*
X17834900Y-10161500D02*
X18154900Y-10161500D01*
X17994900Y-13001500D02*
X17994900Y-13321500D01*
X17834900Y-13161500D02*
X18154900Y-13161500D01*
X17994900Y-16001500D02*
X17994900Y-16321500D01*
X17834900Y-16161500D02*
X18154900Y-16161500D01*
X17994900Y-19001500D02*
X17994900Y-19321500D01*
X17834900Y-19161500D02*
X18154900Y-19161500D01*
X20994900Y-7001500D02*
X20994900Y-7321500D01*
X20834900Y-7161500D02*
X21154900Y-7161500D01*
X20994900Y-10001500D02*
X20994900Y-10321500D01*
X20834900Y-10161500D02*
X21154900Y-10161500D01*
X20994900Y-13001500D02*
X20994900Y-13321500D01*
X20834900Y-13161500D02*
X21154900Y-13161500D01*
X20994900Y-16001500D02*
X20994900Y-16321500D01*
X20834900Y-16161500D02*
X21154900Y-16161500D01*
X20994900Y-19001500D02*
X20994900Y-19321500D01*
X20834900Y-19161500D02*
X21154900Y-19161500D01*
X23994900Y-7001500D02*
X23994900Y-7321500D01*
X23834900Y-7161500D02*
X24154900Y-7161500D01*
X23994900Y-10001500D02*
X23994900Y-10321500D01*
X23834900Y-10161500D02*
X24154900Y-10161500D01*
X23994900Y-12994400D02*
X23994900Y-13314400D01*
X23834900Y-13154400D02*
X24154900Y-13154400D01*
X23994900Y-16001500D02*
X23994900Y-16321500D01*
X23834900Y-16161500D02*
X24154900Y-16161500D01*
X23994900Y-19001500D02*
X23994900Y-19321500D01*
X23834900Y-19161500D02*
X24154900Y-19161500D01*
X26994900Y-7001500D02*
X26994900Y-7321500D01*
X26834900Y-7161500D02*
X27154900Y-7161500D01*
X26994900Y-10001500D02*
X26994900Y-10321500D01*
X26834900Y-10161500D02*
X27154900Y-10161500D01*
X26994900Y-13001500D02*
X26994900Y-13321500D01*
X26834900Y-13161500D02*
X27154900Y-13161500D01*
X26994900Y-16001500D02*
X26994900Y-16321500D01*
X26834900Y-16161500D02*
X27154900Y-16161500D01*
X26994900Y-19001500D02*
X26994900Y-19321500D01*
X26834900Y-19161500D02*
X27154900Y-19161500D01*
X29994900Y-7001500D02*
X29994900Y-7321500D01*
X29834900Y-7161500D02*
X30154900Y-7161500D01*
X29994900Y-10101500D02*
X29994900Y-10421500D01*
X29834900Y-10261500D02*
X30154900Y-10261500D01*
X29994900Y-16001500D02*
X29994900Y-16321500D01*
X29834900Y-16161500D02*
X30154900Y-16161500D01*
X29994900Y-19001500D02*
X29994900Y-19321500D01*
X29834900Y-19161500D02*
X30154900Y-19161500D01*
D11*
X11742519Y-19981976D02*
X11742519Y-19781976D01*
X11790138Y-19781976D01*
X11818709Y-19791500D01*
X11837757Y-19810548D01*
X11847281Y-19829595D01*
X11856805Y-19867690D01*
X11856805Y-19896262D01*
X11847281Y-19934357D01*
X11837757Y-19953405D01*
X11818709Y-19972452D01*
X11790138Y-19981976D01*
X11742519Y-19981976D01*
X11942519Y-19981976D02*
X11942519Y-19848643D01*
X11942519Y-19886738D02*
X11952043Y-19867690D01*
X11961567Y-19858167D01*
X11980614Y-19848643D01*
X11999662Y-19848643D01*
X12066328Y-19981976D02*
X12066328Y-19848643D01*
X12066328Y-19781976D02*
X12056805Y-19791500D01*
X12066328Y-19801024D01*
X12075852Y-19791500D01*
X12066328Y-19781976D01*
X12066328Y-19801024D01*
X12190138Y-19981976D02*
X12171090Y-19972452D01*
X12161567Y-19953405D01*
X12161567Y-19781976D01*
X12294900Y-19981976D02*
X12275852Y-19972452D01*
X12266328Y-19953405D01*
X12266328Y-19781976D01*
X12523471Y-19981976D02*
X12523471Y-19781976D01*
X12590138Y-19924833D01*
X12656805Y-19781976D01*
X12656805Y-19981976D01*
X12837757Y-19981976D02*
X12837757Y-19877214D01*
X12828233Y-19858167D01*
X12809186Y-19848643D01*
X12771090Y-19848643D01*
X12752043Y-19858167D01*
X12837757Y-19972452D02*
X12818709Y-19981976D01*
X12771090Y-19981976D01*
X12752043Y-19972452D01*
X12742519Y-19953405D01*
X12742519Y-19934357D01*
X12752043Y-19915310D01*
X12771090Y-19905786D01*
X12818709Y-19905786D01*
X12837757Y-19896262D01*
X12932995Y-19848643D02*
X12932995Y-20048643D01*
X12932995Y-19858167D02*
X12952043Y-19848643D01*
X12990138Y-19848643D01*
X13009186Y-19858167D01*
X13018709Y-19867690D01*
X13028233Y-19886738D01*
X13028233Y-19943881D01*
X13018709Y-19962929D01*
X13009186Y-19972452D01*
X12990138Y-19981976D01*
X12952043Y-19981976D01*
X12932995Y-19972452D01*
X13113948Y-19962929D02*
X13123471Y-19972452D01*
X13113948Y-19981976D01*
X13104424Y-19972452D01*
X13113948Y-19962929D01*
X13113948Y-19981976D01*
X13113948Y-19858167D02*
X13123471Y-19867690D01*
X13113948Y-19877214D01*
X13104424Y-19867690D01*
X13113948Y-19858167D01*
X13113948Y-19877214D01*
D12*
X11444900Y-20291500D02*
X11484900Y-20331500D01*
X11484900Y-20291500D02*
X11444900Y-20331500D01*
D11*
X11780614Y-20201976D02*
X11799662Y-20201976D01*
X11818709Y-20211500D01*
X11828233Y-20221024D01*
X11837757Y-20240071D01*
X11847281Y-20278167D01*
X11847281Y-20325786D01*
X11837757Y-20363881D01*
X11828233Y-20382929D01*
X11818709Y-20392452D01*
X11799662Y-20401976D01*
X11780614Y-20401976D01*
X11761567Y-20392452D01*
X11752043Y-20382929D01*
X11742519Y-20363881D01*
X11732995Y-20325786D01*
X11732995Y-20278167D01*
X11742519Y-20240071D01*
X11752043Y-20221024D01*
X11761567Y-20211500D01*
X11780614Y-20201976D01*
X11932995Y-20382929D02*
X11942519Y-20392452D01*
X11932995Y-20401976D01*
X11923471Y-20392452D01*
X11932995Y-20382929D01*
X11932995Y-20401976D01*
X12113948Y-20268643D02*
X12113948Y-20401976D01*
X12066328Y-20192452D02*
X12018709Y-20335310D01*
X12142519Y-20335310D01*
X12256805Y-20201976D02*
X12275852Y-20201976D01*
X12294900Y-20211500D01*
X12304424Y-20221024D01*
X12313948Y-20240071D01*
X12323471Y-20278167D01*
X12323471Y-20325786D01*
X12313948Y-20363881D01*
X12304424Y-20382929D01*
X12294900Y-20392452D01*
X12275852Y-20401976D01*
X12256805Y-20401976D01*
X12237757Y-20392452D01*
X12228233Y-20382929D01*
X12218709Y-20363881D01*
X12209186Y-20325786D01*
X12209186Y-20278167D01*
X12218709Y-20240071D01*
X12228233Y-20221024D01*
X12237757Y-20211500D01*
X12256805Y-20201976D01*
X12447281Y-20201976D02*
X12466328Y-20201976D01*
X12485376Y-20211500D01*
X12494900Y-20221024D01*
X12504424Y-20240071D01*
X12513948Y-20278167D01*
X12513948Y-20325786D01*
X12504424Y-20363881D01*
X12494900Y-20382929D01*
X12485376Y-20392452D01*
X12466328Y-20401976D01*
X12447281Y-20401976D01*
X12428233Y-20392452D01*
X12418709Y-20382929D01*
X12409186Y-20363881D01*
X12399662Y-20325786D01*
X12399662Y-20278167D01*
X12409186Y-20240071D01*
X12418709Y-20221024D01*
X12428233Y-20211500D01*
X12447281Y-20201976D01*
X12599662Y-20401976D02*
X12599662Y-20268643D01*
X12599662Y-20287690D02*
X12609186Y-20278167D01*
X12628233Y-20268643D01*
X12656805Y-20268643D01*
X12675852Y-20278167D01*
X12685376Y-20297214D01*
X12685376Y-20401976D01*
X12685376Y-20297214D02*
X12694900Y-20278167D01*
X12713948Y-20268643D01*
X12742519Y-20268643D01*
X12761567Y-20278167D01*
X12771090Y-20297214D01*
X12771090Y-20401976D01*
X12866328Y-20401976D02*
X12866328Y-20268643D01*
X12866328Y-20287690D02*
X12875852Y-20278167D01*
X12894900Y-20268643D01*
X12923471Y-20268643D01*
X12942519Y-20278167D01*
X12952043Y-20297214D01*
X12952043Y-20401976D01*
X12952043Y-20297214D02*
X12961567Y-20278167D01*
X12980614Y-20268643D01*
X13009186Y-20268643D01*
X13028233Y-20278167D01*
X13037757Y-20297214D01*
X13037757Y-20401976D01*
X13428233Y-20192452D02*
X13256805Y-20449595D01*
X13685376Y-20201976D02*
X13704424Y-20201976D01*
X13723471Y-20211500D01*
X13732995Y-20221024D01*
X13742519Y-20240071D01*
X13752043Y-20278167D01*
X13752043Y-20325786D01*
X13742519Y-20363881D01*
X13732995Y-20382929D01*
X13723471Y-20392452D01*
X13704424Y-20401976D01*
X13685376Y-20401976D01*
X13666328Y-20392452D01*
X13656805Y-20382929D01*
X13647281Y-20363881D01*
X13637757Y-20325786D01*
X13637757Y-20278167D01*
X13647281Y-20240071D01*
X13656805Y-20221024D01*
X13666328Y-20211500D01*
X13685376Y-20201976D01*
X13837757Y-20382929D02*
X13847281Y-20392452D01*
X13837757Y-20401976D01*
X13828233Y-20392452D01*
X13837757Y-20382929D01*
X13837757Y-20401976D01*
X13971090Y-20201976D02*
X13990138Y-20201976D01*
X14009186Y-20211500D01*
X14018709Y-20221024D01*
X14028233Y-20240071D01*
X14037757Y-20278167D01*
X14037757Y-20325786D01*
X14028233Y-20363881D01*
X14018709Y-20382929D01*
X14009186Y-20392452D01*
X13990138Y-20401976D01*
X13971090Y-20401976D01*
X13952043Y-20392452D01*
X13942519Y-20382929D01*
X13932995Y-20363881D01*
X13923471Y-20325786D01*
X13923471Y-20278167D01*
X13932995Y-20240071D01*
X13942519Y-20221024D01*
X13952043Y-20211500D01*
X13971090Y-20201976D01*
X14228233Y-20401976D02*
X14113948Y-20401976D01*
X14171090Y-20401976D02*
X14171090Y-20201976D01*
X14152043Y-20230548D01*
X14132995Y-20249595D01*
X14113948Y-20259119D01*
X14409186Y-20201976D02*
X14313948Y-20201976D01*
X14304424Y-20297214D01*
X14313948Y-20287690D01*
X14332995Y-20278167D01*
X14380614Y-20278167D01*
X14399662Y-20287690D01*
X14409186Y-20297214D01*
X14418709Y-20316262D01*
X14418709Y-20363881D01*
X14409186Y-20382929D01*
X14399662Y-20392452D01*
X14380614Y-20401976D01*
X14332995Y-20401976D01*
X14313948Y-20392452D01*
X14304424Y-20382929D01*
X14485376Y-20201976D02*
X14618709Y-20201976D01*
X14532995Y-20401976D01*
X14685376Y-20201976D02*
X14685376Y-20240071D01*
X14761567Y-20201976D02*
X14761567Y-20240071D01*
X15056805Y-20478167D02*
X15047281Y-20468643D01*
X15028233Y-20440071D01*
X15018709Y-20421024D01*
X15009186Y-20392452D01*
X14999662Y-20344833D01*
X14999662Y-20306738D01*
X15009186Y-20259119D01*
X15018709Y-20230548D01*
X15028233Y-20211500D01*
X15047281Y-20182929D01*
X15056805Y-20173405D01*
X15237757Y-20401976D02*
X15123471Y-20401976D01*
X15180614Y-20401976D02*
X15180614Y-20201976D01*
X15161567Y-20230548D01*
X15142519Y-20249595D01*
X15123471Y-20259119D01*
X15409186Y-20268643D02*
X15409186Y-20401976D01*
X15361567Y-20192452D02*
X15313948Y-20335310D01*
X15437757Y-20335310D01*
X15552043Y-20201976D02*
X15571090Y-20201976D01*
X15590138Y-20211500D01*
X15599662Y-20221024D01*
X15609186Y-20240071D01*
X15618709Y-20278167D01*
X15618709Y-20325786D01*
X15609186Y-20363881D01*
X15599662Y-20382929D01*
X15590138Y-20392452D01*
X15571090Y-20401976D01*
X15552043Y-20401976D01*
X15532995Y-20392452D01*
X15523471Y-20382929D01*
X15513948Y-20363881D01*
X15504424Y-20325786D01*
X15504424Y-20278167D01*
X15513948Y-20240071D01*
X15523471Y-20221024D01*
X15532995Y-20211500D01*
X15552043Y-20201976D01*
X15856805Y-20401976D02*
X15856805Y-20201976D01*
X15942519Y-20401976D02*
X15942519Y-20297214D01*
X15932995Y-20278167D01*
X15913948Y-20268643D01*
X15885376Y-20268643D01*
X15866328Y-20278167D01*
X15856805Y-20287690D01*
X16066328Y-20401976D02*
X16047281Y-20392452D01*
X16037757Y-20382929D01*
X16028233Y-20363881D01*
X16028233Y-20306738D01*
X16037757Y-20287690D01*
X16047281Y-20278167D01*
X16066328Y-20268643D01*
X16094900Y-20268643D01*
X16113948Y-20278167D01*
X16123471Y-20287690D01*
X16132995Y-20306738D01*
X16132995Y-20363881D01*
X16123471Y-20382929D01*
X16113948Y-20392452D01*
X16094900Y-20401976D01*
X16066328Y-20401976D01*
X16247281Y-20401976D02*
X16228233Y-20392452D01*
X16218709Y-20373405D01*
X16218709Y-20201976D01*
X16399662Y-20392452D02*
X16380614Y-20401976D01*
X16342519Y-20401976D01*
X16323471Y-20392452D01*
X16313948Y-20373405D01*
X16313948Y-20297214D01*
X16323471Y-20278167D01*
X16342519Y-20268643D01*
X16380614Y-20268643D01*
X16399662Y-20278167D01*
X16409186Y-20297214D01*
X16409186Y-20316262D01*
X16313948Y-20335310D01*
X16485376Y-20392452D02*
X16504424Y-20401976D01*
X16542519Y-20401976D01*
X16561567Y-20392452D01*
X16571090Y-20373405D01*
X16571090Y-20363881D01*
X16561567Y-20344833D01*
X16542519Y-20335310D01*
X16513948Y-20335310D01*
X16494900Y-20325786D01*
X16485376Y-20306738D01*
X16485376Y-20297214D01*
X16494900Y-20278167D01*
X16513948Y-20268643D01*
X16542519Y-20268643D01*
X16561567Y-20278167D01*
X16637757Y-20478167D02*
X16647281Y-20468643D01*
X16666328Y-20440071D01*
X16675852Y-20421024D01*
X16685376Y-20392452D01*
X16694900Y-20344833D01*
X16694900Y-20306738D01*
X16685376Y-20259119D01*
X16675852Y-20230548D01*
X16666328Y-20211500D01*
X16647281Y-20182929D01*
X16637757Y-20173405D01*
X11484900Y-20575500D02*
G75*
G03*
X11484900Y-20575500I-100000J0D01*
G01*
X11732995Y-20485024D02*
X11742519Y-20475500D01*
X11761567Y-20465976D01*
X11809186Y-20465976D01*
X11828233Y-20475500D01*
X11837757Y-20485024D01*
X11847281Y-20504071D01*
X11847281Y-20523119D01*
X11837757Y-20551690D01*
X11723471Y-20665976D01*
X11847281Y-20665976D01*
X11932995Y-20646929D02*
X11942519Y-20656452D01*
X11932995Y-20665976D01*
X11923471Y-20656452D01*
X11932995Y-20646929D01*
X11932995Y-20665976D01*
X12113948Y-20532643D02*
X12113948Y-20665976D01*
X12066328Y-20456452D02*
X12018709Y-20599310D01*
X12142519Y-20599310D01*
X12323471Y-20665976D02*
X12209186Y-20665976D01*
X12266328Y-20665976D02*
X12266328Y-20465976D01*
X12247281Y-20494548D01*
X12228233Y-20513595D01*
X12209186Y-20523119D01*
X12447281Y-20465976D02*
X12466328Y-20465976D01*
X12485376Y-20475500D01*
X12494900Y-20485024D01*
X12504424Y-20504071D01*
X12513948Y-20542167D01*
X12513948Y-20589786D01*
X12504424Y-20627881D01*
X12494900Y-20646929D01*
X12485376Y-20656452D01*
X12466328Y-20665976D01*
X12447281Y-20665976D01*
X12428233Y-20656452D01*
X12418709Y-20646929D01*
X12409186Y-20627881D01*
X12399662Y-20589786D01*
X12399662Y-20542167D01*
X12409186Y-20504071D01*
X12418709Y-20485024D01*
X12428233Y-20475500D01*
X12447281Y-20465976D01*
X12599662Y-20665976D02*
X12599662Y-20532643D01*
X12599662Y-20551690D02*
X12609186Y-20542167D01*
X12628233Y-20532643D01*
X12656805Y-20532643D01*
X12675852Y-20542167D01*
X12685376Y-20561214D01*
X12685376Y-20665976D01*
X12685376Y-20561214D02*
X12694900Y-20542167D01*
X12713948Y-20532643D01*
X12742519Y-20532643D01*
X12761567Y-20542167D01*
X12771090Y-20561214D01*
X12771090Y-20665976D01*
X12866328Y-20665976D02*
X12866328Y-20532643D01*
X12866328Y-20551690D02*
X12875852Y-20542167D01*
X12894900Y-20532643D01*
X12923471Y-20532643D01*
X12942519Y-20542167D01*
X12952043Y-20561214D01*
X12952043Y-20665976D01*
X12952043Y-20561214D02*
X12961567Y-20542167D01*
X12980614Y-20532643D01*
X13009186Y-20532643D01*
X13028233Y-20542167D01*
X13037757Y-20561214D01*
X13037757Y-20665976D01*
X13428233Y-20456452D02*
X13256805Y-20713595D01*
X13685376Y-20465976D02*
X13704424Y-20465976D01*
X13723471Y-20475500D01*
X13732995Y-20485024D01*
X13742519Y-20504071D01*
X13752043Y-20542167D01*
X13752043Y-20589786D01*
X13742519Y-20627881D01*
X13732995Y-20646929D01*
X13723471Y-20656452D01*
X13704424Y-20665976D01*
X13685376Y-20665976D01*
X13666328Y-20656452D01*
X13656805Y-20646929D01*
X13647281Y-20627881D01*
X13637757Y-20589786D01*
X13637757Y-20542167D01*
X13647281Y-20504071D01*
X13656805Y-20485024D01*
X13666328Y-20475500D01*
X13685376Y-20465976D01*
X13837757Y-20646929D02*
X13847281Y-20656452D01*
X13837757Y-20665976D01*
X13828233Y-20656452D01*
X13837757Y-20646929D01*
X13837757Y-20665976D01*
X13971090Y-20465976D02*
X13990138Y-20465976D01*
X14009186Y-20475500D01*
X14018709Y-20485024D01*
X14028233Y-20504071D01*
X14037757Y-20542167D01*
X14037757Y-20589786D01*
X14028233Y-20627881D01*
X14018709Y-20646929D01*
X14009186Y-20656452D01*
X13990138Y-20665976D01*
X13971090Y-20665976D01*
X13952043Y-20656452D01*
X13942519Y-20646929D01*
X13932995Y-20627881D01*
X13923471Y-20589786D01*
X13923471Y-20542167D01*
X13932995Y-20504071D01*
X13942519Y-20485024D01*
X13952043Y-20475500D01*
X13971090Y-20465976D01*
X14132995Y-20665976D02*
X14171090Y-20665976D01*
X14190138Y-20656452D01*
X14199662Y-20646929D01*
X14218709Y-20618357D01*
X14228233Y-20580262D01*
X14228233Y-20504071D01*
X14218709Y-20485024D01*
X14209186Y-20475500D01*
X14190138Y-20465976D01*
X14152043Y-20465976D01*
X14132995Y-20475500D01*
X14123471Y-20485024D01*
X14113948Y-20504071D01*
X14113948Y-20551690D01*
X14123471Y-20570738D01*
X14132995Y-20580262D01*
X14152043Y-20589786D01*
X14190138Y-20589786D01*
X14209186Y-20580262D01*
X14218709Y-20570738D01*
X14228233Y-20551690D01*
X14399662Y-20532643D02*
X14399662Y-20665976D01*
X14352043Y-20456452D02*
X14304424Y-20599310D01*
X14428233Y-20599310D01*
X14513948Y-20665976D02*
X14552043Y-20665976D01*
X14571090Y-20656452D01*
X14580614Y-20646929D01*
X14599662Y-20618357D01*
X14609186Y-20580262D01*
X14609186Y-20504071D01*
X14599662Y-20485024D01*
X14590138Y-20475500D01*
X14571090Y-20465976D01*
X14532995Y-20465976D01*
X14513948Y-20475500D01*
X14504424Y-20485024D01*
X14494900Y-20504071D01*
X14494900Y-20551690D01*
X14504424Y-20570738D01*
X14513948Y-20580262D01*
X14532995Y-20589786D01*
X14571090Y-20589786D01*
X14590138Y-20580262D01*
X14599662Y-20570738D01*
X14609186Y-20551690D01*
X14685376Y-20465976D02*
X14685376Y-20504071D01*
X14761567Y-20465976D02*
X14761567Y-20504071D01*
X15056805Y-20742167D02*
X15047281Y-20732643D01*
X15028233Y-20704071D01*
X15018709Y-20685024D01*
X15009186Y-20656452D01*
X14999662Y-20608833D01*
X14999662Y-20570738D01*
X15009186Y-20523119D01*
X15018709Y-20494548D01*
X15028233Y-20475500D01*
X15047281Y-20446929D01*
X15056805Y-20437405D01*
X15123471Y-20485024D02*
X15132995Y-20475500D01*
X15152043Y-20465976D01*
X15199662Y-20465976D01*
X15218709Y-20475500D01*
X15228233Y-20485024D01*
X15237757Y-20504071D01*
X15237757Y-20523119D01*
X15228233Y-20551690D01*
X15113948Y-20665976D01*
X15237757Y-20665976D01*
X15475852Y-20665976D02*
X15475852Y-20465976D01*
X15561567Y-20665976D02*
X15561567Y-20561214D01*
X15552043Y-20542167D01*
X15532995Y-20532643D01*
X15504424Y-20532643D01*
X15485376Y-20542167D01*
X15475852Y-20551690D01*
X15685376Y-20665976D02*
X15666328Y-20656452D01*
X15656805Y-20646929D01*
X15647281Y-20627881D01*
X15647281Y-20570738D01*
X15656805Y-20551690D01*
X15666328Y-20542167D01*
X15685376Y-20532643D01*
X15713948Y-20532643D01*
X15732995Y-20542167D01*
X15742519Y-20551690D01*
X15752043Y-20570738D01*
X15752043Y-20627881D01*
X15742519Y-20646929D01*
X15732995Y-20656452D01*
X15713948Y-20665976D01*
X15685376Y-20665976D01*
X15866328Y-20665976D02*
X15847281Y-20656452D01*
X15837757Y-20637405D01*
X15837757Y-20465976D01*
X16018709Y-20656452D02*
X15999662Y-20665976D01*
X15961567Y-20665976D01*
X15942519Y-20656452D01*
X15932995Y-20637405D01*
X15932995Y-20561214D01*
X15942519Y-20542167D01*
X15961567Y-20532643D01*
X15999662Y-20532643D01*
X16018709Y-20542167D01*
X16028233Y-20561214D01*
X16028233Y-20580262D01*
X15932995Y-20599310D01*
X16104424Y-20656452D02*
X16123471Y-20665976D01*
X16161567Y-20665976D01*
X16180614Y-20656452D01*
X16190138Y-20637405D01*
X16190138Y-20627881D01*
X16180614Y-20608833D01*
X16161567Y-20599310D01*
X16132995Y-20599310D01*
X16113948Y-20589786D01*
X16104424Y-20570738D01*
X16104424Y-20561214D01*
X16113948Y-20542167D01*
X16132995Y-20532643D01*
X16161567Y-20532643D01*
X16180614Y-20542167D01*
X16256805Y-20742167D02*
X16266328Y-20732643D01*
X16285376Y-20704071D01*
X16294900Y-20685024D01*
X16304424Y-20656452D01*
X16313948Y-20608833D01*
X16313948Y-20570738D01*
X16304424Y-20523119D01*
X16294900Y-20494548D01*
X16285376Y-20475500D01*
X16266328Y-20446929D01*
X16256805Y-20437405D01*
X11384900Y-20795500D02*
X11384900Y-20995500D01*
X11284900Y-20895500D02*
X11484900Y-20895500D01*
X11723471Y-20785976D02*
X11847281Y-20785976D01*
X11780614Y-20862167D01*
X11809186Y-20862167D01*
X11828233Y-20871690D01*
X11837757Y-20881214D01*
X11847281Y-20900262D01*
X11847281Y-20947881D01*
X11837757Y-20966929D01*
X11828233Y-20976452D01*
X11809186Y-20985976D01*
X11752043Y-20985976D01*
X11732995Y-20976452D01*
X11723471Y-20966929D01*
X11932995Y-20966929D02*
X11942519Y-20976452D01*
X11932995Y-20985976D01*
X11923471Y-20976452D01*
X11932995Y-20966929D01*
X11932995Y-20985976D01*
X12018709Y-20805024D02*
X12028233Y-20795500D01*
X12047281Y-20785976D01*
X12094900Y-20785976D01*
X12113948Y-20795500D01*
X12123471Y-20805024D01*
X12132995Y-20824071D01*
X12132995Y-20843119D01*
X12123471Y-20871690D01*
X12009186Y-20985976D01*
X12132995Y-20985976D01*
X12256805Y-20785976D02*
X12275852Y-20785976D01*
X12294900Y-20795500D01*
X12304424Y-20805024D01*
X12313948Y-20824071D01*
X12323471Y-20862167D01*
X12323471Y-20909786D01*
X12313948Y-20947881D01*
X12304424Y-20966929D01*
X12294900Y-20976452D01*
X12275852Y-20985976D01*
X12256805Y-20985976D01*
X12237757Y-20976452D01*
X12228233Y-20966929D01*
X12218709Y-20947881D01*
X12209186Y-20909786D01*
X12209186Y-20862167D01*
X12218709Y-20824071D01*
X12228233Y-20805024D01*
X12237757Y-20795500D01*
X12256805Y-20785976D01*
X12447281Y-20785976D02*
X12466328Y-20785976D01*
X12485376Y-20795500D01*
X12494900Y-20805024D01*
X12504424Y-20824071D01*
X12513948Y-20862167D01*
X12513948Y-20909786D01*
X12504424Y-20947881D01*
X12494900Y-20966929D01*
X12485376Y-20976452D01*
X12466328Y-20985976D01*
X12447281Y-20985976D01*
X12428233Y-20976452D01*
X12418709Y-20966929D01*
X12409186Y-20947881D01*
X12399662Y-20909786D01*
X12399662Y-20862167D01*
X12409186Y-20824071D01*
X12418709Y-20805024D01*
X12428233Y-20795500D01*
X12447281Y-20785976D01*
X12599662Y-20985976D02*
X12599662Y-20852643D01*
X12599662Y-20871690D02*
X12609186Y-20862167D01*
X12628233Y-20852643D01*
X12656805Y-20852643D01*
X12675852Y-20862167D01*
X12685376Y-20881214D01*
X12685376Y-20985976D01*
X12685376Y-20881214D02*
X12694900Y-20862167D01*
X12713948Y-20852643D01*
X12742519Y-20852643D01*
X12761567Y-20862167D01*
X12771090Y-20881214D01*
X12771090Y-20985976D01*
X12866328Y-20985976D02*
X12866328Y-20852643D01*
X12866328Y-20871690D02*
X12875852Y-20862167D01*
X12894900Y-20852643D01*
X12923471Y-20852643D01*
X12942519Y-20862167D01*
X12952043Y-20881214D01*
X12952043Y-20985976D01*
X12952043Y-20881214D02*
X12961567Y-20862167D01*
X12980614Y-20852643D01*
X13009186Y-20852643D01*
X13028233Y-20862167D01*
X13037757Y-20881214D01*
X13037757Y-20985976D01*
X13428233Y-20776452D02*
X13256805Y-21033595D01*
X13685376Y-20785976D02*
X13704424Y-20785976D01*
X13723471Y-20795500D01*
X13732995Y-20805024D01*
X13742519Y-20824071D01*
X13752043Y-20862167D01*
X13752043Y-20909786D01*
X13742519Y-20947881D01*
X13732995Y-20966929D01*
X13723471Y-20976452D01*
X13704424Y-20985976D01*
X13685376Y-20985976D01*
X13666328Y-20976452D01*
X13656805Y-20966929D01*
X13647281Y-20947881D01*
X13637757Y-20909786D01*
X13637757Y-20862167D01*
X13647281Y-20824071D01*
X13656805Y-20805024D01*
X13666328Y-20795500D01*
X13685376Y-20785976D01*
X13837757Y-20966929D02*
X13847281Y-20976452D01*
X13837757Y-20985976D01*
X13828233Y-20976452D01*
X13837757Y-20966929D01*
X13837757Y-20985976D01*
X14037757Y-20985976D02*
X13923471Y-20985976D01*
X13980614Y-20985976D02*
X13980614Y-20785976D01*
X13961567Y-20814548D01*
X13942519Y-20833595D01*
X13923471Y-20843119D01*
X14113948Y-20805024D02*
X14123471Y-20795500D01*
X14142519Y-20785976D01*
X14190138Y-20785976D01*
X14209186Y-20795500D01*
X14218709Y-20805024D01*
X14228233Y-20824071D01*
X14228233Y-20843119D01*
X14218709Y-20871690D01*
X14104424Y-20985976D01*
X14228233Y-20985976D01*
X14399662Y-20785976D02*
X14361567Y-20785976D01*
X14342519Y-20795500D01*
X14332995Y-20805024D01*
X14313948Y-20833595D01*
X14304424Y-20871690D01*
X14304424Y-20947881D01*
X14313948Y-20966929D01*
X14323471Y-20976452D01*
X14342519Y-20985976D01*
X14380614Y-20985976D01*
X14399662Y-20976452D01*
X14409186Y-20966929D01*
X14418709Y-20947881D01*
X14418709Y-20900262D01*
X14409186Y-20881214D01*
X14399662Y-20871690D01*
X14380614Y-20862167D01*
X14342519Y-20862167D01*
X14323471Y-20871690D01*
X14313948Y-20881214D01*
X14304424Y-20900262D01*
X14542519Y-20785976D02*
X14561567Y-20785976D01*
X14580614Y-20795500D01*
X14590138Y-20805024D01*
X14599662Y-20824071D01*
X14609186Y-20862167D01*
X14609186Y-20909786D01*
X14599662Y-20947881D01*
X14590138Y-20966929D01*
X14580614Y-20976452D01*
X14561567Y-20985976D01*
X14542519Y-20985976D01*
X14523471Y-20976452D01*
X14513948Y-20966929D01*
X14504424Y-20947881D01*
X14494900Y-20909786D01*
X14494900Y-20862167D01*
X14504424Y-20824071D01*
X14513948Y-20805024D01*
X14523471Y-20795500D01*
X14542519Y-20785976D01*
X14685376Y-20785976D02*
X14685376Y-20824071D01*
X14761567Y-20785976D02*
X14761567Y-20824071D01*
X15056805Y-21062167D02*
X15047281Y-21052643D01*
X15028233Y-21024071D01*
X15018709Y-21005024D01*
X15009186Y-20976452D01*
X14999662Y-20928833D01*
X14999662Y-20890738D01*
X15009186Y-20843119D01*
X15018709Y-20814548D01*
X15028233Y-20795500D01*
X15047281Y-20766929D01*
X15056805Y-20757405D01*
X15113948Y-20785976D02*
X15237757Y-20785976D01*
X15171090Y-20862167D01*
X15199662Y-20862167D01*
X15218709Y-20871690D01*
X15228233Y-20881214D01*
X15237757Y-20900262D01*
X15237757Y-20947881D01*
X15228233Y-20966929D01*
X15218709Y-20976452D01*
X15199662Y-20985976D01*
X15142519Y-20985976D01*
X15123471Y-20976452D01*
X15113948Y-20966929D01*
X15409186Y-20852643D02*
X15409186Y-20985976D01*
X15361567Y-20776452D02*
X15313948Y-20919310D01*
X15437757Y-20919310D01*
X15666328Y-20985976D02*
X15666328Y-20785976D01*
X15752043Y-20985976D02*
X15752043Y-20881214D01*
X15742519Y-20862167D01*
X15723471Y-20852643D01*
X15694900Y-20852643D01*
X15675852Y-20862167D01*
X15666328Y-20871690D01*
X15875852Y-20985976D02*
X15856805Y-20976452D01*
X15847281Y-20966929D01*
X15837757Y-20947881D01*
X15837757Y-20890738D01*
X15847281Y-20871690D01*
X15856805Y-20862167D01*
X15875852Y-20852643D01*
X15904424Y-20852643D01*
X15923471Y-20862167D01*
X15932995Y-20871690D01*
X15942519Y-20890738D01*
X15942519Y-20947881D01*
X15932995Y-20966929D01*
X15923471Y-20976452D01*
X15904424Y-20985976D01*
X15875852Y-20985976D01*
X16056805Y-20985976D02*
X16037757Y-20976452D01*
X16028233Y-20957405D01*
X16028233Y-20785976D01*
X16209186Y-20976452D02*
X16190138Y-20985976D01*
X16152043Y-20985976D01*
X16132995Y-20976452D01*
X16123471Y-20957405D01*
X16123471Y-20881214D01*
X16132995Y-20862167D01*
X16152043Y-20852643D01*
X16190138Y-20852643D01*
X16209186Y-20862167D01*
X16218709Y-20881214D01*
X16218709Y-20900262D01*
X16123471Y-20919310D01*
X16294900Y-20976452D02*
X16313948Y-20985976D01*
X16352043Y-20985976D01*
X16371090Y-20976452D01*
X16380614Y-20957405D01*
X16380614Y-20947881D01*
X16371090Y-20928833D01*
X16352043Y-20919310D01*
X16323471Y-20919310D01*
X16304424Y-20909786D01*
X16294900Y-20890738D01*
X16294900Y-20881214D01*
X16304424Y-20862167D01*
X16323471Y-20852643D01*
X16352043Y-20852643D01*
X16371090Y-20862167D01*
X16447281Y-21062167D02*
X16456805Y-21052643D01*
X16475852Y-21024071D01*
X16485376Y-21005024D01*
X16494900Y-20976452D01*
X16504424Y-20928833D01*
X16504424Y-20890738D01*
X16494900Y-20843119D01*
X16485376Y-20814548D01*
X16475852Y-20795500D01*
X16456805Y-20766929D01*
X16447281Y-20757405D01*
M02*
